<svg width="197" height="64" viewBox="0 0 197 64" fill="none" xmlns="http://www.w3.org/2000/svg">
<g clip-path="url(#clip0_26_4)">
<path d="M58.1459 50.563C58.1459 52.163 58.0735 53.7493 57.927 55.3118L55.0408 55.7453L51.5266 56.2775C51.567 55.5781 51.5867 54.8748 51.5855 54.1675C51.5855 33.9739 35.3732 17.6126 15.3822 17.6126C14.5184 17.6126 13.6596 17.6415 12.8126 17.701V14.3261L9.76648 18.0377C6.38513 18.5655 3.09618 19.5801 0 21.0505L0 0.654535C2.66787 0.217318 5.36635 -0.00158988 8.06913 -5.29991e-05H8.49515V4.1519L11.777 0.135965C37.702 2.05212 58.1459 23.8984 58.1459 50.563Z" fill="#EA4C36"/>
<path d="M45.5337 50.5631C45.5333 52.8347 45.2504 55.0972 44.6917 57.2977L35.3328 58.7021C36.0611 56.6444 36.4132 54.4702 36.3717 52.2854C36.3574 51.4125 36.2792 50.5419 36.1377 49.6807C35.4076 45.1676 33.0171 41.0992 29.4443 38.2891C29.4443 38.2891 29.4308 38.2772 29.4207 38.2687C28.7781 37.766 28.1031 37.307 27.4 36.895C25.1671 35.675 22.6194 35.1698 20.0954 35.4465C17.5714 35.7232 15.1904 36.7688 13.2689 38.4442C11.3473 40.1197 9.97606 42.3458 9.33725 44.8268C8.69843 47.3079 8.8223 49.9264 9.69239 52.3347L23.7426 49.021C26.5497 54.1965 11.7097 54.1965 12.4725 62.1297L0 64V42.1657C0 31.8759 8.19374 23.4529 18.3846 23.3713H18.6001C25.7421 23.3736 32.5909 26.239 37.6414 31.3379C42.6918 36.4368 45.5306 43.3518 45.5337 50.5631Z" fill="#002447"/>
<path d="M102.135 61.9478H96.7471L94.5968 48.2083H82.4274L80.2771 61.9478H75.0369V61.7897L85.9467 0H91.3031L102.135 61.9478ZM93.8845 43.3558L88.5281 9.86983L83.1313 43.3558H93.8845Z" fill="#002447"/>
<path d="M131.032 57.5663C131.032 58.8551 130.628 59.9075 129.82 60.7236C129.012 61.5398 127.969 61.9478 126.691 61.9478H112.458C111.181 61.9478 110.139 61.5398 109.331 60.7236C108.522 59.9075 108.118 58.8551 108.118 57.5663V41.8902H113.554V57.092H125.597V0.158112H131.032V57.5663Z" fill="#EA4C36"/>
<path d="M165.481 61.9478H160.093L157.941 48.2083H145.773L143.623 61.9478H138.384V61.7897L149.292 0H154.651L165.481 61.9478ZM157.23 43.3558L151.874 9.86983L146.477 43.3558H157.23Z" fill="#002447"/>
<path d="M196.998 61.9478H191.406L183.234 36.5549L175.062 61.9427H169.627V61.6265L180.537 30.3168C173.654 10.3164 170.226 0.263526 170.252 0.158112H175.965L183.315 23.6111L190.938 0.158112H196.374V0.510059L186.206 30.0039C193.454 51.1944 197.051 61.8424 196.998 61.9478Z" fill="#002447"/>
</g>
<defs>
<clipPath id="clip0_26_4">
<rect width="197" height="64" fill="white"/>
</clipPath>
</defs>
</svg>
